<svg xmlns="http://www.w3.org/2000/svg" xmlns:xlink="http://www.w3.org/1999/xlink" viewBox="0 0 421.8 87.49"><defs><style>.cls-1{fill:#00e98f;}.cls-2{fill:url(#未命名的渐变_5);}.cls-3{fill:url(#未命名的渐变_5-2);}.cls-4{fill:url(#未命名的渐变_5-3);}</style><linearGradient id="未命名的渐变_5" x1="-11.88" y1="16.78" x2="111.78" y2="16.78" gradientUnits="userSpaceOnUse"><stop offset="0" stop-color="#00e98f" stop-opacity="0.15"/><stop offset="0.27" stop-color="#00e98f" stop-opacity="0.45"/><stop offset="0.52" stop-color="#00e98f" stop-opacity="0.69"/><stop offset="0.73" stop-color="#00e98f" stop-opacity="0.86"/><stop offset="0.9" stop-color="#00e98f" stop-opacity="0.96"/><stop offset="1" stop-color="#00e98f"/></linearGradient><linearGradient id="未命名的渐变_5-2" x1="-11.88" y1="63.43" x2="111.78" y2="63.43" xlink:href="#未命名的渐变_5"/><linearGradient id="未命名的渐变_5-3" x1="-11.88" y1="40.01" x2="111.78" y2="40.01" xlink:href="#未命名的渐变_5"/></defs><g id="图层_2" data-name="图层 2"><g id="图层_1-2" data-name="图层 1"><path class="cls-1" d="M164.36,44,179,29a1.46,1.46,0,0,0,.31-1.61,1.44,1.44,0,0,0-1.34-.89h-7a2.08,2.08,0,0,0-1.47.63c-.5.53-11,11.51-14.78,15.51l0-30.32a1.9,1.9,0,0,0-1.91-1.87H147a1.89,1.89,0,0,0-1.89,1.89V67A1.89,1.89,0,0,0,147,68.84h5.83A1.89,1.89,0,0,0,154.71,67V53.16l3.35-3.62L171.65,68a2,2,0,0,0,1.64.82h7.32a1.47,1.47,0,0,0,1.32-.83,1.45,1.45,0,0,0-.16-1.52Z"/><path class="cls-1" d="M286.07,44l14.64-15a1.48,1.48,0,0,0,.29-1.6,1.45,1.45,0,0,0-1.35-.89h-7a2,2,0,0,0-1.48.64l-2,2.15c-3.6,3.82-9.86,10.44-12.57,13.35l-.16-30.31a1.89,1.89,0,0,0-1.89-1.88h-5.83a1.89,1.89,0,0,0-1.89,1.89V67a1.89,1.89,0,0,0,1.89,1.89h5.83A1.89,1.89,0,0,0,276.43,67V53.16l3.33-3.62L293.37,68a2,2,0,0,0,1.62.82h7.34a1.45,1.45,0,0,0,1.14-2.35Z"/><path class="cls-1" d="M421.54,27.08a1.44,1.44,0,0,0-1.2-.63H413.7a1.45,1.45,0,0,0-1.38,1L404.09,51c-.47,1.35-1.12,3.41-2,6.47-.79-2.32-1.53-4.36-2.19-6.06l-9.15-24a1.45,1.45,0,0,0-1.36-.94h-6.81a1.45,1.45,0,0,0-1.21.64,1.49,1.49,0,0,0-.15,1.39l15.25,36.76a4.81,4.81,0,0,1,.46,1.72c0,.65-.6,2.26-3.47,6.19a18.34,18.34,0,0,1-8.95,6.42,1.46,1.46,0,0,0-.94,1.78L385,86.43a1.47,1.47,0,0,0,1.4,1.06,1.66,1.66,0,0,0,.32,0,23.24,23.24,0,0,0,7-3.13,25.85,25.85,0,0,0,7.71-8.12c2.34-3.6,5.31-10,9.11-19.49L421.7,28.45A1.46,1.46,0,0,0,421.54,27.08Z"/><path class="cls-1" d="M242.94,26.46a21.19,21.19,0,1,0,21.19,21.19A21.22,21.22,0,0,0,242.94,26.46Zm0,35.88c-7.22,0-13.1-6.59-13.1-14.69S235.72,33,242.94,33,256,39.55,256,47.65,250.15,62.34,242.94,62.34Z"/><path class="cls-1" d="M197.92,26.46a21.19,21.19,0,1,0,21.2,21.19A21.22,21.22,0,0,0,197.92,26.46Zm0,35.88c-7.21,0-13.08-6.59-13.08-14.69S190.71,33,197.92,33,211,39.55,211,47.65,205.14,62.34,197.92,62.34Z"/><path class="cls-1" d="M319.71,26.44c-11.09,0-20.1,9.51-20.1,21.21s9,21.19,20.1,21.19a19.94,19.94,0,0,0,17.92-11.6.6.6,0,0,0,0-.49.55.55,0,0,0-.38-.28l-6.43-1.32a.55.55,0,0,0-.58.29c-2.29,4.32-6.23,6.9-10.53,6.9-5.31,0-10-4-11.76-9.92a1.22,1.22,0,0,1,.19-1.06,1.2,1.2,0,0,1,.95-.46h30a.52.52,0,0,0,.52-.45,22.29,22.29,0,0,0,.18-2.8,21.13,21.13,0,0,0-.28-3.53C337.91,33.88,329.58,26.44,319.71,26.44Zm11.55,17.49a1.16,1.16,0,0,1-.93.47H309.09A1.18,1.18,0,0,1,308,42.86c1.71-5.92,6.44-9.9,11.75-9.9s10,4,11.75,9.9A1.18,1.18,0,0,1,331.26,43.93Z"/><path class="cls-1" d="M363,26.44c-11.09,0-20.1,9.51-20.1,21.21s9,21.19,20.1,21.19a19.93,19.93,0,0,0,17.91-11.6.6.6,0,0,0,0-.49.51.51,0,0,0-.37-.28l-6.45-1.32a.53.53,0,0,0-.56.29c-2.3,4.32-6.23,6.9-10.53,6.9-5.33,0-10.05-4-11.77-9.92a1.19,1.19,0,0,1,.2-1.05,1.16,1.16,0,0,1,.94-.47h30a.53.53,0,0,0,.52-.45,22.05,22.05,0,0,0,.18-2.8,22.34,22.34,0,0,0-.28-3.53C381.17,33.88,372.83,26.44,363,26.44Zm11.55,17.49a1.16,1.16,0,0,1-.93.47H352.34a1.19,1.19,0,0,1-.94-.47,1.21,1.21,0,0,1-.2-1C352.93,36.94,357.65,33,363,33s10,4,11.75,9.9A1.21,1.21,0,0,1,374.52,43.93Z"/><path class="cls-2" d="M80.86,11.84,71.07,2.06a7,7,0,0,0-9.86,0L50.82,12.45a10.09,10.09,0,0,1-7.15,3h0a10.1,10.1,0,0,1-7.15-3L31.46,7.39a2.06,2.06,0,0,0-2.91,0l-7.93,7.93a2.06,2.06,0,0,0,0,2.91l7.93,7.93a2.06,2.06,0,0,0,2.91,0l5.06-5.06a10.15,10.15,0,0,1,7.15-3h0a10.13,10.13,0,0,1,7.15,3L61.21,31.49a7,7,0,0,0,9.86,0l9.79-9.78A7,7,0,0,0,80.86,11.84Z"/><path class="cls-3" d="M80.86,58.5l-9.79-9.78a7,7,0,0,0-9.86,0L50.82,59.1a10.1,10.1,0,0,1-7.15,3h0a10.11,10.11,0,0,1-7.15-3l-5.06-5.05a2,2,0,0,0-2.91,0L20.62,62a2.08,2.08,0,0,0,0,2.92l7.93,7.92a2,2,0,0,0,2.91,0l5.06-5a10.11,10.11,0,0,1,7.15-3h0a10.1,10.1,0,0,1,7.15,3L61.21,78.14a7,7,0,0,0,9.86,0l9.79-9.78A7,7,0,0,0,80.86,58.5Z"/><path class="cls-4" d="M98.92,42.71a3.68,3.68,0,0,1,0-5.21L122,14.42a3.69,3.69,0,0,0,0-5.22l-8.13-8.12a3.68,3.68,0,0,0-5.21,0L83,26.77l-8.41,8.41a11.68,11.68,0,0,1-8.26,3.42h0a11.68,11.68,0,0,1-8.26-3.42l-9.32-9.32a6.66,6.66,0,0,0-9.42,0L29.4,35.77a9.64,9.64,0,0,1-13.65,0L10.92,31a2,2,0,0,0-2.78,0L.58,38.51a2,2,0,0,0,0,2.78l7.56,7.57a2,2,0,0,0,2.78,0L15.75,44A9.64,9.64,0,0,1,29.4,44l9.91,9.91a6.66,6.66,0,0,0,9.42,0l9.46-9.46A11.2,11.2,0,0,1,66.1,41.2h0A11.2,11.2,0,0,1,74,44.48l9,9,25.49,25.5a3.7,3.7,0,0,0,5.21,0l8.13-8.13a3.68,3.68,0,0,0,0-5.21Z"/></g></g></svg>